<svg xmlns="http://www.w3.org/2000/svg" viewBox="0 0 100 100" role="img" aria-label="LyraFit">
  <!-- LYRA, en el naranja de Vega — que es la estrella alfa de la constelación
       de Lyra, así que el color y el nombre eran la misma cosa desde siempre.
       Generado por zz-logo desde src/componentes/lyra.tsx: el cuerpo, el
       degradé y la cresta son los mismos que los de la mascota, no una copia. -->
  <defs>
    <radialGradient id="c" cx="38%" cy="30%" r="78%">
      <stop offset="0%" stop-color="#FFE9D6"/>
      <stop offset="24%" stop-color="#FFB578"/>
      <stop offset="58%" stop-color="#FF7A2F"/>
      <stop offset="100%" stop-color="#A8330A"/>
    </radialGradient>
    <linearGradient id="k" x1="0" y1="1" x2="0" y2="0">
      <stop offset="0%" stop-color="#B03A0C"/>
      <stop offset="100%" stop-color="#FFC08A"/>
    </linearGradient>
    <radialGradient id="h" cx="50%" cy="48%" r="55%">
      <stop offset="0%" stop-color="rgba(255,138,84,0.45)"/>
      <stop offset="100%" stop-color="rgba(255,122,69,0)"/>
    </radialGradient>
  </defs>
  <rect width="100" height="100" rx="22" fill="#0b0e13"/>
  <g transform="translate(4.3 6.3) scale(0.92)">
    <circle cx="50" cy="52" r="46" fill="url(#h)"/>
    <path d="M50 2 Q43 17 50 26 Q57 17 50 2 Z" fill="url(#k)" opacity="0.95"/>
    <path d="M41 10 Q38 20 46 26 Q44 17 41 10 Z" fill="url(#k)" opacity="0.72"/>
    <path d="M59 10 Q62 20 54 26 Q56 17 59 10 Z" fill="url(#k)" opacity="0.72"/>
    <path d="M 50.00 13.00 C 55.88 13.00 61.13 25.01 67.63 29.73 C 74.13 34.45 87.18 35.74 88.99 41.33 C 90.81 46.92 81.01 55.63 78.53 63.27 C 76.05 70.91 78.85 83.71 74.10 87.17 C 69.34 90.62 58.03 84.00 50.00 84.00 C 41.97 84.00 30.66 90.62 25.90 87.17 C 21.15 83.71 23.95 70.91 21.47 63.27 C 18.99 55.63 9.19 46.92 11.01 41.33 C 12.82 35.74 25.87 34.45 32.37 29.73 C 38.87 25.01 44.12 13.00 50.00 13.00 Z" fill="url(#c)" stroke="rgba(255,236,220,0.45)" stroke-width="1.1" stroke-linejoin="round"/>
    <path d="M 50.00 13.00 C 55.88 13.00 61.13 25.01 67.63 29.73 C 74.13 34.45 87.18 35.74 88.99 41.33 C 90.81 46.92 81.01 55.63 78.53 63.27 C 76.05 70.91 78.85 83.71 74.10 87.17 C 69.34 90.62 58.03 84.00 50.00 84.00 C 41.97 84.00 30.66 90.62 25.90 87.17 C 21.15 83.71 23.95 70.91 21.47 63.27 C 18.99 55.63 9.19 46.92 11.01 41.33 C 12.82 35.74 25.87 34.45 32.37 29.73 C 38.87 25.01 44.12 13.00 50.00 13.00 Z" fill="none" stroke="rgba(90,28,4,0.28)" stroke-width="2" clip-path="inset(55% 0 0 0)"/>
    <ellipse cx="38" cy="36" rx="11" ry="7" fill="rgba(255,255,255,0.5)" transform="rotate(-28 38 36)"/>
    <g fill="#2A1206">
      <ellipse cx="41" cy="51" rx="3.5" ry="4.6"/>
      <ellipse cx="59" cy="51" rx="3.5" ry="4.6"/>
    </g>
    <circle cx="42.4" cy="49.2" r="1.35" fill="#fff"/>
    <circle cx="60.4" cy="49.2" r="1.35" fill="#fff"/>
    <path d="M43 58 Q50 65 57 58" fill="none" stroke="#2A1206" stroke-width="2.6" stroke-linecap="round"/>
  </g>
</svg>
